<?xml version="1.0" standalone="no"?>
<!DOCTYPE svg PUBLIC "-//W3C//DTD SVG 20010904//EN"
 "http://www.w3.org/TR/2001/REC-SVG-20010904/DTD/svg10.dtd">
<svg version="1.0" xmlns="http://www.w3.org/2000/svg"
 width="300.000000pt" height="102.000000pt" viewBox="0 0 300.000000 102.000000"
 preserveAspectRatio="xMidYMid meet">
<metadata>
Created by potrace 1.10, written by Peter Selinger 2001-2011
</metadata>
<g transform="translate(0.000000,102.000000) scale(0.100000,-0.100000)"
fill="#000000" stroke="none">
<path d="M1971 790 c-77 -19 -127 -82 -136 -173 -3 -34 -5 -141 -3 -237 l3
-175 65 0 65 0 3 220 c2 210 3 221 23 238 27 22 35 21 59 -3 18 -18 20 -33 20
-175 0 -168 7 -201 53 -244 54 -50 170 -58 233 -16 25 16 28 16 39 2 20 -28
63 -39 93 -25 78 38 54 148 -32 148 l-26 0 0 220 0 220 -65 0 -65 0 0 -225 0
-225 -24 -15 c-19 -13 -29 -14 -45 -5 -28 14 -30 30 -33 211 -3 154 -3 156
-32 193 -43 56 -124 84 -195 66z"/>
<path d="M497 783 c-4 -3 -7 -30 -7 -60 l0 -53 80 0 80 0 0 -162 c0 -182 12
-226 67 -266 30 -21 98 -41 141 -42 20 0 22 4 22 60 0 60 0 60 -29 60 -56 0
-61 15 -61 191 l0 159 75 0 75 0 2 -232 3 -233 68 -3 67 -3 0 116 0 115 48 0
47 0 45 -92 c55 -112 75 -129 161 -131 l64 -2 3 58 3 57 -35 0 c-34 0 -37 3
-72 71 l-35 71 31 31 c54 53 64 82 64 192 l1 100 -67 3 -66 3 -4 -96 c-3 -92
-5 -98 -31 -121 -23 -20 -39 -24 -93 -24 l-64 0 0 120 0 120 -288 0 c-159 0
-292 -3 -295 -7z"/>
</g>
</svg>
